Coordinates
version=1
nRows=17
nColumns=34
inDegrees=yes

Units are S.I. units (second, meters, Newtons, ...)
If the header above contains a line with 'inDegrees', this indicates whether rotational values are in degrees (yes) or radians (no).

endheader
time	pelvis_tilt	pelvis_list	pelvis_rotation	pelvis_tx	pelvis_ty	pelvis_tz	hip_flexion_r	hip_adduction_r	hip_rotation_r	knee_angle_r	ankle_angle_r	subtalar_angle_r	mtp_angle_r	hip_flexion_l	hip_adduction_l	hip_rotation_l	knee_angle_l	ankle_angle_l	subtalar_angle_l	mtp_angle_l	lumbar_extension	lumbar_bending	lumbar_rotation	arm_flex_r	arm_add_r	arm_rot_r	elbow_flex_r	pro_sup_r	arm_flex_l	arm_add_l	arm_rot_l	elbow_flex_l	pro_sup_l
      1.36666670	    -12.35334749	     -0.68515538	      9.53795695	      1.65999365	      0.92116723	     -0.08948136	      5.96335499	     -5.35460627	    -20.89750356	      5.52258275	    -16.44637809	      4.58908607	      0.00000000	     11.15838695	     -5.02368710	     -5.56117530	      3.84782972	    -19.13618134	      7.00088782	      0.00000000	      3.55565798	     -7.42532496	     12.05705655	    160.32638497	     -0.62318658	     49.54162851	     14.55547222	     63.54072360	    147.15401209	      4.74115285	     24.41377519	     78.70544400	     89.04705193
      1.38333330	    -12.45918356	     -0.93642845	      9.54594480	      1.66397514	      0.91897745	     -0.08896787	      6.08323720	     -5.18248798	    -20.75081821	      6.14018279	    -15.94862748	      4.27866709	      0.00000000	     11.16135021	     -5.27902827	     -5.74264966	      4.13154400	    -19.02543273	      6.70255718	      0.00000000	      3.82006970	     -7.28975250	     11.77588516	    161.18075369	      0.55735537	     49.39528210	     15.37022001	     63.59753477	    147.51411718	      4.99139814	     24.49273274	     78.65118396	     89.23632886
      1.40000000	    -12.50794140	     -1.14739790	      9.52101549	      1.66783136	      0.91708164	     -0.08899194	      6.10210715	     -4.99807392	    -20.41045620	      6.71041658	    -15.32139619	      3.85994438	      0.00000000	     10.99503722	     -5.53014453	     -5.68639923	      4.35726922	    -18.53433662	      6.35726263	      0.00000000	      3.95441795	     -7.28093185	     11.33699181	    161.77712675	      1.24631445	     49.21120183	     15.93562631	     63.68835920	    147.71915415	      5.43769346	     24.63687260	     78.94038736	     89.44436484
      1.41666670	    -12.47392424	     -1.27797265	      9.48516526	      1.67124962	      0.91607983	     -0.09002103	      5.99230309	     -4.85860410	    -19.81757874	      7.18015568	    -14.95710191	      2.86517830	      0.00000000	     10.68596464	     -5.69396041	     -5.31784824	      4.53468199	    -17.99908839	      5.81946301	      0.00000000	      3.93189506	     -7.18268460	     10.81514441	    161.98265162	      1.67745797	     48.48519480	     17.12427196	     64.21632693	    147.73466517	      5.45565439	     24.85226012	     79.97168528	     90.31203028
      1.43333330	    -12.27629678	     -1.47094334	      9.35069987	      1.67443917	      0.91550780	     -0.09172689	      5.72159300	     -4.62857369	    -19.39079089	      7.64466862	    -14.08270177	      2.59341895	      0.00000000	     10.18755531	     -5.95528148	     -5.08434058	      4.69292890	    -17.11807248	      5.59256473	      0.00000000	      3.95480305	     -7.06923472	     10.41704565	    161.78650104	      1.71260436	     48.42403423	     17.30958826	     64.37057465	    147.28861987	      5.98795095	     25.12513226	     80.52406523	     90.48745084
      1.45000000	    -11.97474392	     -1.52788434	      9.29015531	      1.67708979	      0.91457039	     -0.09390578	      5.29961087	     -4.53760489	    -18.84710366	      8.01567033	    -13.54239323	      1.83702326	      0.00000000	      9.53570768	     -5.98970073	     -4.69233486	      4.70063737	    -16.22347523	      5.29643535	      0.00000000	      3.97534383	     -6.74177665	     10.19359865	    160.86802302	      1.60437914	     48.36933002	     18.96554569	     65.23562008	    145.62284943	      5.49886125	     25.47430761	     82.89596169	     91.26531828
      1.46666670	    -11.71316900	     -1.54645891	      9.20063886	      1.67913284	      0.91309183	     -0.09584434	      4.97833152	     -4.49903458	    -18.33464963	      8.44374378	    -12.87741235	      1.10752977	      0.00000000	      8.97072164	     -5.94132919	     -4.35459396	      4.70397646	    -15.30385093	      5.01779504	      0.00000000	      3.99155606	     -6.54804665	     10.07859431	    159.84365461	      1.26280636	     48.49557180	     20.26480670	     66.15712012	    143.70694967	      5.13476593	     25.89581742	     84.95514039	     91.95488453
      1.48333330	    -11.49858668	     -1.54018951	      9.10689683	      1.68113127	      0.91082698	     -0.09747798	      4.67757829	     -4.46236511	    -17.93519406	      8.80693752	    -12.32014748	      0.28204204	      0.00000000	      8.44773254	     -5.83395356	     -4.19304876	      4.62501161	    -14.46336381	      4.71038995	      0.00000000	      4.00313959	     -6.37530328	      9.94909068	    158.71203590	      0.77631760	     48.86016749	     21.65379060	     67.18014301	    141.58578369	      4.46227604	     26.29318148	     86.98286049	     92.59492063
      1.50000000	    -11.39663226	     -1.46356759	      9.02497025	      1.68360823	      0.90770495	     -0.09877524	      4.43243990	     -4.48746010	    -17.67657109	      9.09221860	    -11.78163831	     -0.61362375	      0.00000000	      8.05033387	     -5.62865442	     -4.17945831	      4.59148807	    -13.65815953	      4.32787067	      0.00000000	      4.06637998	     -6.30464338	      9.82462929	    157.59615952	      0.22864511	     49.50815065	     23.06185449	     68.31788543	    139.67805842	      3.59932659	     26.72635123	     88.57335653	     93.18613401
      1.51666670	    -11.56540993	     -1.33328962	      8.94696751	      1.68629224	      0.90451522	     -0.09989156	      4.51698823	     -4.63344699	    -17.43881779	      9.44963536	    -11.15940029	     -1.54907281	      0.00000000	      8.00711824	     -5.32587836	     -4.09450012	      4.72314895	    -12.79904959	      3.87564843	      0.00000000	      4.24907500	     -6.43406790	      9.80871988	    156.93572070	     -0.74434711	     51.09411865	     25.02661220	     71.32260968	    138.22789173	      2.97616167	     27.04797204	     89.58148152	     94.43515243
      1.53333330	    -11.35176125	     -1.18575824	      8.85416093	      1.68877753	      0.90370552	     -0.10110295	      4.04654508	     -4.73639149	    -17.31096307	      9.49259331	    -10.64863161	     -1.91719339	      0.00000000	      7.42211486	     -5.10142635	     -4.22010638	      4.61404918	    -12.32102010	      3.46465537	      0.00000000	      4.04794314	     -6.44934027	      9.75384391	    156.16669463	     -1.14000134	     51.53390600	     25.42928703	     71.82985357	    136.85078568	      2.17580267	     27.60145308	     89.82432788	     94.61689884
      1.55000000	    -11.49157247	     -1.10515487	      8.78066734	      1.69073168	      0.90397634	     -0.10268100	      3.84233801	     -4.81203203	    -17.13673678	      9.15141461	    -10.40786495	     -2.15971504	      0.00000000	      7.23848191	     -4.91091970	     -4.38829192	      4.48055617	    -12.24064584	      3.08101894	      0.00000000	      4.24411615	     -6.36350294	      9.61159210	    155.15137923	     -1.92085886	     52.58631588	     27.10873064	     72.88351178	    135.33247996	      0.84034136	     28.30983523	     90.97506468	     94.90467965
      1.56666670	    -11.47637176	     -0.96943148	      8.72997243	      1.69217779	      0.90451766	     -0.10451755	      3.59509491	     -5.01902706	    -16.95142107	      9.00195197	    -10.24361477	     -2.23960787	      0.00000000	      6.93819972	     -4.67275459	     -4.57020170	      4.39270980	    -11.92216935	      2.80815530	      0.00000000	      4.11545172	     -6.33623591	      9.36731746	    154.38550277	     -2.60884051	     53.34658450	     28.25014328	     73.57910786	    133.84956047	     -0.00243929	     28.92904986	     91.85452867	     95.06218988
      1.58333330	    -11.80414225	     -0.94651150	      8.66969237	      1.69408782	      0.90419116	     -0.10589083	      3.65242891	     -5.11581939	    -16.71392577	      8.58818228	    -10.39976310	     -2.13410240	      0.00000000	      7.10148805	     -4.54064838	     -4.85045812	      4.40096352	    -12.00816279	      2.85142036	      0.00000000	      4.27864670	     -6.15827104	      9.10351230	    153.74975624	     -3.63038987	     54.79645811	     30.61043619	     74.99988892	    132.49416664	     -1.35437119	     29.51040199	     93.59701873	     95.29449970
      1.60000000	    -11.91831378	     -0.89451672	      8.54064749	      1.69647497	      0.90398833	     -0.10712743	      3.50798801	     -5.21718667	    -16.30345268	      8.21381239	    -10.59036500	     -1.98211976	      0.00000000	      6.91112499	     -4.41069114	     -5.08352481	      4.25336844	    -11.90279344	      2.93517657	      0.00000000	      4.27895639	     -6.03723001	      8.89485958	    153.19099402	     -4.71667710	     56.24352052	     32.29533917	     76.43044766	    131.14217148	     -2.40371795	     30.12456503	     95.17458209	     95.47041167
      1.61666670	    -11.89150229	     -0.84006983	      8.44320058	      1.69926894	      0.90361291	     -0.10873042	      3.17711471	     -5.30451620	    -15.88425006	      7.86239550	    -10.66620975	     -1.84812180	      0.00000000	      6.49662879	     -4.28908114	     -5.14615019	      4.01006678	    -11.72059761	      2.97535212	      0.00000000	      4.16191480	     -5.99009958	      8.70770001	    152.76897757	     -5.72145097	     57.00604595	     33.04738364	     77.01109086	    129.89954635	     -3.14960468	     30.83395166	     96.29949221	     95.54796366
      1.63333330	    -12.26107244	     -0.78950695	      8.34488352	      1.70219700	      0.90234943	     -0.11079644	      3.29034932	     -5.49126098	    -15.46668397	      7.59505208	    -10.83239930	     -1.71493843	      0.00000000	      6.62671206	     -4.11853369	     -5.26576354	      4.01761678	    -11.54497844	      3.36272153	      0.00000000	      4.26530620	     -5.95361430	      8.41949710	    153.09448694	     -7.37940708	     59.35547333	     35.50061565	     78.98840914	    129.32325528	     -4.39770233	     31.39880418	     97.70426465	     95.65322367
